<svg width="172" height="25" viewBox="0 0 172 25" fill="none" xmlns="http://www.w3.org/2000/svg">
<path d="M44.0566 6.09961C42.5202 6.09961 41.3125 6.61393 40.4336 7.64258C39.5547 8.67122 39.1152 10.0775 39.1152 11.8613C39.1152 13.7038 39.5417 15.1263 40.3945 16.1289C41.2474 17.125 42.4616 17.623 44.0371 17.623C45.0527 17.623 46.1953 17.4342 47.4648 17.0566V18.6191C46.8594 18.8405 46.2767 18.9902 45.7168 19.0684C45.1569 19.153 44.5124 19.1953 43.7832 19.1953C41.6803 19.1953 40.0592 18.5573 38.9199 17.2812C37.7871 15.9987 37.2207 14.1855 37.2207 11.8418C37.2207 10.3704 37.4909 9.08138 38.0312 7.97461C38.5781 6.86784 39.3691 6.01497 40.4043 5.41602C41.446 4.81706 42.6699 4.51758 44.0762 4.51758C45.5866 4.51758 46.9017 4.79753 48.0215 5.35742L47.2988 6.88086C46.1595 6.36003 45.0788 6.09961 44.0566 6.09961ZM59.6523 13.6191C59.6523 15.3704 59.2096 16.7376 58.3242 17.7207C57.4388 18.7038 56.2148 19.1953 54.6523 19.1953C53.6823 19.1953 52.8229 18.9707 52.0742 18.5215C51.3255 18.0658 50.7493 17.4147 50.3457 16.5684C49.9421 15.722 49.7402 14.7389 49.7402 13.6191C49.7402 11.8743 50.1764 10.5169 51.0488 9.54688C51.9212 8.57031 53.1452 8.08203 54.7207 8.08203C56.2311 8.08203 57.429 8.58008 58.3145 9.57617C59.2064 10.5658 59.6523 11.9134 59.6523 13.6191ZM51.5566 13.6191C51.5566 14.9668 51.8203 15.9922 52.3477 16.6953C52.8815 17.3919 53.666 17.7402 54.7012 17.7402C55.7233 17.7402 56.5013 17.3919 57.0352 16.6953C57.569 15.9922 57.8359 14.9668 57.8359 13.6191C57.8359 12.2715 57.5658 11.2591 57.0254 10.582C56.4915 9.89844 55.707 9.55664 54.6719 9.55664C52.5951 9.55664 51.5566 10.9108 51.5566 13.6191ZM69.75 19V12.1445C69.75 11.2721 69.5547 10.6243 69.1641 10.2012C68.7799 9.77148 68.1745 9.55664 67.3477 9.55664C66.2474 9.55664 65.4466 9.86263 64.9453 10.4746C64.4505 11.0801 64.2031 12.0697 64.2031 13.4434V19H62.4453V8.27734H63.8613L64.125 9.74219H64.2227C64.5547 9.21484 65.0202 8.80794 65.6191 8.52148C66.2181 8.22852 66.8789 8.08203 67.6016 8.08203C68.9167 8.08203 69.8932 8.40104 70.5312 9.03906C71.1693 9.67708 71.4883 10.6699 71.4883 12.0176V19H69.75ZM79.75 9.64453H77.0449V19H75.2871V9.64453H73.4121V8.82422L75.2871 8.21875V7.60352C75.2871 6.30143 75.5703 5.32487 76.1367 4.67383C76.7096 4.02279 77.5885 3.69727 78.7734 3.69727C79.457 3.69727 80.1504 3.81771 80.8535 4.05859L80.3848 5.43555C79.7793 5.24023 79.2487 5.14258 78.793 5.14258C78.2005 5.14258 77.7611 5.33789 77.4746 5.72852C77.1882 6.11914 77.0449 6.73763 77.0449 7.58398V8.27734H79.75V9.64453ZM83.4609 19H81.7031V8.27734H83.4609V19ZM81.5664 5.37695C81.5664 4.98633 81.6641 4.70312 81.8594 4.52734C82.0612 4.35156 82.3086 4.26367 82.6016 4.26367C82.875 4.26367 83.1126 4.35156 83.3145 4.52734C83.5228 4.70312 83.627 4.98633 83.627 5.37695C83.627 5.76107 83.5228 6.04427 83.3145 6.22656C83.1126 6.40885 82.875 6.5 82.6016 6.5C82.3086 6.5 82.0612 6.40885 81.8594 6.22656C81.6641 6.04427 81.5664 5.76107 81.5664 5.37695ZM90.9414 17.7598C92.0221 17.7598 92.8066 17.4701 93.2949 16.8906C93.7897 16.3047 94.0371 15.3672 94.0371 14.0781V13.6582C94.0371 12.2259 93.7897 11.1842 93.2949 10.5332C92.8001 9.88216 92.0026 9.55664 90.9023 9.55664C90.0039 9.55664 89.3073 9.91471 88.8125 10.6309C88.3242 11.3405 88.0801 12.3561 88.0801 13.6777C88.0801 15.0059 88.3177 16.0182 88.793 16.7148C89.2747 17.4115 89.9909 17.7598 90.9414 17.7598ZM94.0176 18.9023L94.0762 17.584H93.998C93.2754 18.6582 92.1686 19.1953 90.6777 19.1953C89.291 19.1953 88.207 18.7135 87.4258 17.75C86.651 16.7799 86.2637 15.416 86.2637 13.6582C86.2637 11.9329 86.6543 10.5723 87.4355 9.57617C88.2233 8.58008 89.2975 8.08203 90.6582 8.08203C92.11 8.08203 93.2298 8.6224 94.0176 9.70312H94.125L94.3594 8.27734H95.7559V19.1758C95.7559 20.7122 95.3652 21.8678 94.584 22.6426C93.8092 23.4173 92.6016 23.8047 90.9609 23.8047C89.3984 23.8047 88.1126 23.5768 87.1035 23.1211V21.5C88.1452 22.0599 89.4635 22.3398 91.0586 22.3398C91.9701 22.3398 92.6895 22.0729 93.2168 21.5391C93.7507 21.0052 94.0176 20.2663 94.0176 19.3223V18.9023ZM100.824 8.27734V15.1816C100.824 16.0475 101.016 16.6921 101.4 17.1152C101.791 17.5319 102.393 17.7402 103.207 17.7402C104.307 17.7402 105.108 17.4342 105.609 16.8223C106.111 16.2103 106.361 15.224 106.361 13.8633V8.27734H108.129V19H106.684L106.43 17.584H106.342C106.023 18.0983 105.57 18.4954 104.984 18.7754C104.398 19.0553 103.718 19.1953 102.943 19.1953C101.654 19.1953 100.681 18.8861 100.023 18.2676C99.3724 17.6491 99.0469 16.6595 99.0469 15.2988V8.27734H100.824ZM116.527 8.08203C117.003 8.08203 117.423 8.12109 117.787 8.19922L117.572 9.82031C117.175 9.72917 116.788 9.68359 116.41 9.68359C115.844 9.68359 115.316 9.83984 114.828 10.1523C114.346 10.4648 113.969 10.8978 113.695 11.4512C113.422 11.998 113.285 12.6068 113.285 13.2773V19H111.527V8.27734H112.973L113.168 10.2402H113.246C113.656 9.5306 114.141 8.99349 114.701 8.62891C115.261 8.26432 115.87 8.08203 116.527 8.08203ZM126.215 19L125.873 17.4766H125.795C125.261 18.1471 124.727 18.6029 124.193 18.8438C123.666 19.0781 122.999 19.1953 122.191 19.1953C121.137 19.1953 120.31 18.9186 119.711 18.3652C119.112 17.8118 118.812 17.0306 118.812 16.0215C118.812 13.847 120.528 12.7077 123.959 12.6035L125.775 12.5352V11.9004C125.775 11.0866 125.6 10.4876 125.248 10.1035C124.896 9.71289 124.333 9.51758 123.559 9.51758C122.992 9.51758 122.455 9.60221 121.947 9.77148C121.446 9.94076 120.974 10.1296 120.531 10.3379L119.994 9.01953C120.535 8.73307 121.124 8.50846 121.762 8.3457C122.4 8.18294 123.031 8.10156 123.656 8.10156C124.952 8.10156 125.915 8.38802 126.547 8.96094C127.178 9.53385 127.494 10.4453 127.494 11.6953V19H126.215ZM122.592 17.7793C123.575 17.7793 124.346 17.5156 124.906 16.9883C125.473 16.4544 125.756 15.6992 125.756 14.7227V13.7559L124.174 13.8242C122.943 13.8698 122.045 14.0651 121.479 14.4102C120.919 14.7552 120.639 15.2988 120.639 16.041C120.639 16.6009 120.808 17.0306 121.146 17.3301C121.492 17.6296 121.973 17.7793 122.592 17.7793ZM135.121 19.1953C133.578 19.1953 132.377 18.7233 131.518 17.7793C130.658 16.8288 130.229 15.4681 130.229 13.6973C130.229 11.9004 130.661 10.5169 131.527 9.54688C132.4 8.57031 133.64 8.08203 135.248 8.08203C135.769 8.08203 136.283 8.13737 136.791 8.24805C137.305 8.35221 137.729 8.48893 138.061 8.6582L137.523 10.123C136.618 9.78451 135.847 9.61523 135.209 9.61523C134.128 9.61523 133.331 9.95703 132.816 10.6406C132.302 11.3177 132.045 12.3301 132.045 13.6777C132.045 14.9733 132.302 15.9661 132.816 16.6562C133.331 17.3398 134.092 17.6816 135.102 17.6816C136.046 17.6816 136.973 17.4733 137.885 17.0566V18.6191C137.143 19.0033 136.221 19.1953 135.121 19.1953ZM136.605 21.7832C136.605 22.4277 136.358 22.9258 135.863 23.2773C135.375 23.6289 134.636 23.8047 133.646 23.8047C133.223 23.8047 132.891 23.7689 132.65 23.6973V22.6035C132.885 22.6686 133.236 22.7012 133.705 22.7012C134.193 22.7012 134.561 22.6361 134.809 22.5059C135.062 22.3822 135.189 22.1543 135.189 21.8223C135.189 21.2428 134.581 20.875 133.363 20.7188L134.223 19H135.385L134.867 20.0645C136.026 20.3118 136.605 20.8848 136.605 21.7832ZM149.75 13.6191C149.75 15.3704 149.307 16.7376 148.422 17.7207C147.536 18.7038 146.312 19.1953 144.75 19.1953C143.78 19.1953 142.921 18.9707 142.172 18.5215C141.423 18.0658 140.847 17.4147 140.443 16.5684C140.04 15.722 139.838 14.7389 139.838 13.6191C139.838 11.8743 140.274 10.5169 141.146 9.54688C142.019 8.57031 143.243 8.08203 144.818 8.08203C146.329 8.08203 147.527 8.58008 148.412 9.57617C149.304 10.5658 149.75 11.9134 149.75 13.6191ZM141.654 13.6191C141.654 14.9668 141.918 15.9922 142.445 16.6953C142.979 17.3919 143.764 17.7402 144.799 17.7402C145.821 17.7402 146.599 17.3919 147.133 16.6953C147.667 15.9922 147.934 14.9668 147.934 13.6191C147.934 12.2715 147.663 11.2591 147.123 10.582C146.589 9.89844 145.805 9.55664 144.77 9.55664C142.693 9.55664 141.654 10.9108 141.654 13.6191ZM146.303 6.86133C146.023 6.86133 145.749 6.80273 145.482 6.68555C145.215 6.56185 144.952 6.43164 144.691 6.29492C144.438 6.15169 144.19 6.02148 143.949 5.9043C143.715 5.7806 143.487 5.71875 143.266 5.71875C142.947 5.71875 142.706 5.81641 142.543 6.01172C142.38 6.20052 142.253 6.49023 142.162 6.88086H141.146C141.225 6.08659 141.452 5.46159 141.83 5.00586C142.208 4.55013 142.712 4.32227 143.344 4.32227C143.637 4.32227 143.92 4.38411 144.193 4.50781C144.473 4.625 144.74 4.75521 144.994 4.89844C145.248 5.03516 145.492 5.16536 145.727 5.28906C145.961 5.40625 146.182 5.46484 146.391 5.46484C146.703 5.46484 146.938 5.37044 147.094 5.18164C147.257 4.98633 147.387 4.69336 147.484 4.30273H148.49C148.412 5.07747 148.184 5.69922 147.807 6.16797C147.429 6.63021 146.928 6.86133 146.303 6.86133ZM157.104 19.1953C155.495 19.1953 154.232 18.7103 153.314 17.7402C152.403 16.7637 151.947 15.4225 151.947 13.7168C151.947 11.998 152.374 10.6309 153.227 9.61523C154.079 8.5931 155.232 8.08203 156.684 8.08203C158.031 8.08203 159.105 8.51823 159.906 9.39062C160.707 10.2565 161.107 11.4316 161.107 12.916V13.9805H153.764C153.796 15.1979 154.105 16.1224 154.691 16.7539C155.277 17.3854 156.107 17.7012 157.182 17.7012C157.755 17.7012 158.298 17.6523 158.812 17.5547C159.327 17.4505 159.929 17.252 160.619 16.959V18.502C160.027 18.7559 159.47 18.9349 158.949 19.0391C158.428 19.1432 157.813 19.1953 157.104 19.1953ZM156.664 9.51758C155.824 9.51758 155.16 9.78776 154.672 10.3281C154.184 10.8685 153.894 11.6204 153.803 12.584H159.262C159.249 11.5814 159.018 10.8197 158.568 10.2988C158.119 9.77799 157.484 9.51758 156.664 9.51758ZM170.814 16.041C170.814 17.0436 170.44 17.8216 169.691 18.375C168.943 18.9219 167.891 19.1953 166.537 19.1953C165.124 19.1953 164.001 18.9707 163.168 18.5215V16.9199C164.346 17.4928 165.482 17.7793 166.576 17.7793C167.462 17.7793 168.106 17.6361 168.51 17.3496C168.913 17.0632 169.115 16.679 169.115 16.1973C169.115 15.7741 168.92 15.416 168.529 15.123C168.145 14.8301 167.458 14.4948 166.469 14.1172C165.46 13.7266 164.75 13.3945 164.34 13.1211C163.93 12.8411 163.627 12.5286 163.432 12.1836C163.243 11.8385 163.148 11.4186 163.148 10.9238C163.148 10.0449 163.507 9.35156 164.223 8.84375C164.939 8.33594 165.922 8.08203 167.172 8.08203C168.389 8.08203 169.529 8.32292 170.59 8.80469L169.994 10.2012C168.907 9.74544 167.927 9.51758 167.055 9.51758C166.326 9.51758 165.772 9.63477 165.395 9.86914C165.017 10.097 164.828 10.4128 164.828 10.8164C164.828 11.207 164.991 11.5326 165.316 11.793C165.642 12.0469 166.4 12.4017 167.592 12.8574C168.484 13.1895 169.141 13.4987 169.564 13.7852C169.994 14.0716 170.31 14.3939 170.512 14.752C170.714 15.11 170.814 15.5397 170.814 16.041Z" fill="black"/>
<path d="M1 20.7143L1 4.28571C1 2.46543 2.46543 0.999999 4.28571 0.999999H20.7143C22.5346 0.999999 24 2.46543 24 4.28571V20.7143C24 22.5346 22.5346 24 20.7143 24H4.28571C2.46543 24 1 22.5346 1 20.7143Z" stroke="black" stroke-width="1.6" stroke-linecap="round" stroke-linejoin="round"/>
<path d="M5.92847 19.0714V17.4286" stroke="black" stroke-width="1.6" stroke-linecap="round" stroke-linejoin="round"/>
<path d="M7.57136 15.7857C7.57136 16.2215 7.39827 16.6393 7.09018 16.9474C6.78208 17.2555 6.36421 17.4286 5.9285 17.4286C5.49279 17.4286 5.07492 17.2555 4.76683 16.9474C4.45873 16.6393 4.28564 16.2215 4.28564 15.7857C4.28564 15.57 4.32814 15.3564 4.4107 15.157C4.49326 14.9577 4.61427 14.7766 4.76683 14.6241C4.91938 14.4715 5.10049 14.3505 5.29981 14.2679C5.49913 14.1854 5.71276 14.1429 5.9285 14.1429C6.14424 14.1429 6.35788 14.1854 6.5572 14.2679C6.75652 14.3505 6.93762 14.4715 7.09018 14.6241C7.24273 14.7766 7.36374 14.9577 7.4463 15.157C7.52886 15.3564 7.57136 15.57 7.57136 15.7857Z" stroke="black" stroke-width="1.6" stroke-linecap="round" stroke-linejoin="round"/>
<path d="M5.92854 14.1429L5.92847 5.9286" stroke="black" stroke-width="1.6" stroke-linecap="round" stroke-linejoin="round"/>
<path d="M12.5 5.92856V7.57141" stroke="black" stroke-width="1.6" stroke-linecap="round" stroke-linejoin="round"/>
<path d="M14.1429 9.21426C14.1429 8.77855 13.9698 8.36068 13.6617 8.05258C13.3536 7.74449 12.9357 7.5714 12.5 7.5714C12.0643 7.5714 11.6465 7.74449 11.3384 8.05258C11.0303 8.36068 10.8572 8.77855 10.8572 9.21426C10.8572 9.64997 11.0303 10.0678 11.3384 10.3759C11.6465 10.684 12.0643 10.8571 12.5 10.8571C12.9357 10.8571 13.3536 10.684 13.6617 10.3759C13.9698 10.0678 14.1429 9.64997 14.1429 9.21426Z" stroke="black" stroke-width="1.6" stroke-linecap="round" stroke-linejoin="round"/>
<path d="M12.5001 10.8571L12.5 19.0714" stroke="black" stroke-width="1.6" stroke-linecap="round" stroke-linejoin="round"/>
<path d="M19.0715 19.0714V17.4286" stroke="black" stroke-width="1.6" stroke-linecap="round" stroke-linejoin="round"/>
<path d="M20.7142 15.7857C20.7142 16.2215 20.5411 16.6393 20.233 16.9474C19.9249 17.2555 19.507 17.4286 19.0713 17.4286C18.6356 17.4286 18.2177 17.2555 17.9096 16.9474C17.6016 16.6393 17.4285 16.2215 17.4285 15.7857C17.4285 15.57 17.471 15.3564 17.5535 15.157C17.6361 14.9577 17.7571 14.7766 17.9096 14.6241C18.0622 14.4715 18.2433 14.3505 18.4426 14.2679C18.6419 14.1854 18.8556 14.1429 19.0713 14.1429C19.2871 14.1429 19.5007 14.1854 19.7 14.2679C19.8993 14.3505 20.0804 14.4715 20.233 14.6241C20.3856 14.7766 20.5066 14.9577 20.5891 15.157C20.6717 15.3564 20.7142 15.57 20.7142 15.7857Z" stroke="black" stroke-width="1.6" stroke-linecap="round" stroke-linejoin="round"/>
<path d="M19.0716 14.1429L19.0715 5.9286" stroke="black" stroke-width="1.6" stroke-linecap="round" stroke-linejoin="round"/>
</svg>
