<?xml version="1.0" encoding="UTF-8"?>
<!DOCTYPE svg PUBLIC "-//W3C//DTD SVG 1.1//EN" "http://www.w3.org/Graphics/SVG/1.1/DTD/svg11.dtd">
<!-- Creator: CorelDRAW -->
<svg xmlns="http://www.w3.org/2000/svg" xml:space="preserve" width="3000mm" height="610mm" version="1.1" style="shape-rendering:geometricPrecision; text-rendering:geometricPrecision; image-rendering:optimizeQuality; fill-rule:evenodd; clip-rule:evenodd"
viewBox="0 0 300000 61000"
 xmlns:xlink="http://www.w3.org/1999/xlink"
 xmlns:xodm="http://www.corel.com/coreldraw/odm/2003">
 <defs>
  <style type="text/css">
   <![CDATA[
    .fil0 {fill:black}
   ]]>
  </style>
 </defs>
 <g id="Camada_x0020_1">
  <metadata id="CorelCorpID_0Corel-Layer"/>
  <path class="fil0" d="M154718.2 26618.08c-1093.66,183.89 -2068.99,1216.93 -1857.39,2557.07 173.29,1097.46 1212.67,2065.99 2536.25,1867.95 1119.3,-167.47 2079.97,-1203.04 1887.68,-2560.68 -155.07,-1094.85 -1256.7,-2084.59 -2566.54,-1864.34zm100.53 401.51c-931.27,135.52 -1718.11,977.72 -1558.87,2070.14 134.29,921.21 979.04,1713.19 2082.66,1549.63 929.72,-137.79 1698.98,-996.8 1538.97,-2095.63 -130.88,-898.85 -984.69,-1681.02 -2062.76,-1524.14zm1464.74 4168.33l1476.11 2252.5c136.25,-50.14 658.74,-458.71 800.29,-572.91l-1680.71 -2110.28c-121.04,67.26 -170.02,155.61 -274.49,227.49 -105.5,72.58 -241.52,117.18 -321.2,203.2z"/>
 </g>
</svg>
