<svg width="204" height="50" viewBox="0 0 204 50" fill="none" xmlns="http://www.w3.org/2000/svg">
<path d="M56.4842 32V21.8C56.4842 21.592 56.4922 21.432 56.5082 21.32C56.5242 21.208 56.5802 21.12 56.6762 21.056C56.7722 20.992 56.9242 20.96 57.1322 20.96H66.6602V22.016H58.3322V25.688H65.9642V26.744H58.3322V32H56.4842ZM70.7897 32.096C70.0377 32.096 69.5337 31.896 69.2777 31.496C69.0217 31.096 68.8937 30.512 68.8937 29.744V22.424H70.5737V29.648C70.5737 30.304 70.6457 30.744 70.7897 30.968C70.9337 31.192 71.1897 31.304 71.5577 31.304C71.6857 31.304 71.8457 31.288 72.0377 31.256C72.2297 31.224 72.3497 31.2 72.3977 31.184V31.928C72.3497 31.944 72.2537 31.968 72.1097 32C71.9817 32.016 71.8057 32.032 71.5817 32.048C71.3737 32.08 71.1097 32.096 70.7897 32.096ZM69.7577 21.032C69.4857 21.032 69.2697 20.992 69.1097 20.912C68.9497 20.832 68.8697 20.664 68.8697 20.408C68.8697 20.152 68.9417 19.984 69.0857 19.904C69.2457 19.824 69.4617 19.784 69.7337 19.784C70.0377 19.784 70.2617 19.824 70.4057 19.904C70.5497 19.984 70.6137 20.152 70.5977 20.408C70.5977 20.664 70.5257 20.832 70.3817 20.912C70.2377 20.992 70.0297 21.032 69.7577 21.032ZM74.5779 32C74.2099 32 74.0259 31.808 74.0259 31.424V23.12C74.4899 22.912 75.0979 22.728 75.8499 22.568C76.6179 22.408 77.4979 22.328 78.4899 22.328C79.4179 22.328 80.1699 22.392 80.7459 22.52C81.3219 22.648 81.7619 22.84 82.0659 23.096C82.3699 23.352 82.5699 23.688 82.6659 24.104C82.7779 24.504 82.8339 24.992 82.8339 25.568V31.28C82.8339 31.456 82.8099 31.6 82.7619 31.712C82.7299 31.824 82.6579 31.904 82.5459 31.952C82.4499 31.984 82.2979 32 82.0899 32H81.1539V25.232C81.1539 24.592 80.9459 24.12 80.5299 23.816C80.1139 23.512 79.4339 23.36 78.4899 23.36C78.1859 23.36 77.8499 23.384 77.4819 23.432C77.1299 23.48 76.7939 23.552 76.4739 23.648C76.1539 23.728 75.8899 23.84 75.6819 23.984V32H74.5779ZM86.1326 32V21.896C86.1326 21.464 86.1726 21.2 86.2526 21.104C86.3486 21.008 86.5726 20.96 86.9246 20.96H88.2446L92.2046 29.768L92.2526 29.936L92.3006 29.864L92.3486 29.696L96.3086 20.96H97.7006C98.0366 20.96 98.2526 21 98.3486 21.08C98.4606 21.144 98.5166 21.344 98.5166 21.68V31.256C98.5166 31.48 98.4926 31.64 98.4446 31.736C98.4126 31.832 98.3406 31.904 98.2286 31.952C98.1326 31.984 97.9806 32 97.7726 32H96.6446V22.976L96.5486 23.312L92.6366 32H91.3886L87.5486 23.48L87.4766 23.144V32H86.1326ZM106.02 32.168C105.076 32.168 104.308 32.12 103.716 32.024C103.124 31.928 102.668 31.768 102.348 31.544C102.044 31.304 101.828 30.992 101.7 30.608C101.588 30.224 101.532 29.752 101.532 29.192C101.532 28.376 101.628 27.752 101.82 27.32C102.012 26.888 102.348 26.592 102.828 26.432C103.308 26.272 103.948 26.192 104.748 26.192C105.148 26.192 105.58 26.208 106.044 26.24C106.524 26.256 106.98 26.28 107.412 26.312C107.86 26.328 108.244 26.352 108.564 26.384C108.9 26.416 109.124 26.456 109.236 26.504C109.236 25.768 109.172 25.184 109.044 24.752C108.916 24.32 108.716 24 108.444 23.792C108.188 23.584 107.86 23.448 107.46 23.384C107.076 23.32 106.628 23.288 106.116 23.288C105.588 23.288 105.052 23.312 104.508 23.36C103.98 23.392 103.492 23.456 103.044 23.552C102.596 23.632 102.252 23.744 102.012 23.888V23.528C102.012 23.192 102.108 22.96 102.3 22.832C102.508 22.688 102.74 22.592 102.996 22.544C103.3 22.464 103.74 22.4 104.316 22.352C104.908 22.304 105.524 22.288 106.164 22.304C106.98 22.304 107.676 22.344 108.252 22.424C108.844 22.504 109.332 22.68 109.716 22.952C110.1 23.208 110.388 23.6 110.58 24.128C110.772 24.656 110.868 25.376 110.868 26.288V31.232C110.772 31.552 110.348 31.792 109.596 31.952C108.844 32.096 107.652 32.168 106.02 32.168ZM106.02 31.352C106.756 31.352 107.34 31.328 107.772 31.28C108.22 31.232 108.556 31.168 108.78 31.088C109.02 31.008 109.172 30.904 109.236 30.776V27.2C109.092 27.152 108.82 27.104 108.42 27.056C108.036 27.008 107.628 26.968 107.196 26.936C106.764 26.888 106.396 26.864 106.092 26.864C105.404 26.864 104.844 26.904 104.412 26.984C103.996 27.064 103.692 27.264 103.5 27.584C103.324 27.904 103.236 28.4 103.236 29.072C103.236 29.6 103.3 30.032 103.428 30.368C103.556 30.704 103.812 30.952 104.196 31.112C104.596 31.272 105.204 31.352 106.02 31.352ZM114.094 32C113.726 32 113.542 31.808 113.542 31.424V23.12C114.006 22.912 114.614 22.728 115.366 22.568C116.134 22.408 117.014 22.328 118.006 22.328C118.934 22.328 119.686 22.392 120.262 22.52C120.838 22.648 121.278 22.84 121.582 23.096C121.886 23.352 122.086 23.688 122.182 24.104C122.294 24.504 122.35 24.992 122.35 25.568V31.28C122.35 31.456 122.326 31.6 122.278 31.712C122.246 31.824 122.174 31.904 122.062 31.952C121.966 31.984 121.814 32 121.606 32H120.67V25.232C120.67 24.592 120.462 24.12 120.046 23.816C119.63 23.512 118.95 23.36 118.006 23.36C117.702 23.36 117.366 23.384 116.998 23.432C116.646 23.48 116.31 23.552 115.99 23.648C115.67 23.728 115.406 23.84 115.198 23.984V32H114.094ZM129.176 32.168C128.232 32.168 127.464 32.12 126.872 32.024C126.28 31.928 125.824 31.768 125.504 31.544C125.2 31.304 124.984 30.992 124.856 30.608C124.744 30.224 124.688 29.752 124.688 29.192C124.688 28.376 124.784 27.752 124.976 27.32C125.168 26.888 125.504 26.592 125.984 26.432C126.464 26.272 127.104 26.192 127.904 26.192C128.304 26.192 128.736 26.208 129.2 26.24C129.68 26.256 130.136 26.28 130.568 26.312C131.016 26.328 131.4 26.352 131.72 26.384C132.056 26.416 132.28 26.456 132.392 26.504C132.392 25.768 132.328 25.184 132.2 24.752C132.072 24.32 131.872 24 131.6 23.792C131.344 23.584 131.016 23.448 130.616 23.384C130.232 23.32 129.784 23.288 129.272 23.288C128.744 23.288 128.208 23.312 127.664 23.36C127.136 23.392 126.648 23.456 126.2 23.552C125.752 23.632 125.408 23.744 125.168 23.888V23.528C125.168 23.192 125.264 22.96 125.456 22.832C125.664 22.688 125.896 22.592 126.152 22.544C126.456 22.464 126.896 22.4 127.472 22.352C128.064 22.304 128.68 22.288 129.32 22.304C130.136 22.304 130.832 22.344 131.408 22.424C132 22.504 132.488 22.68 132.872 22.952C133.256 23.208 133.544 23.6 133.736 24.128C133.928 24.656 134.024 25.376 134.024 26.288V31.232C133.928 31.552 133.504 31.792 132.752 31.952C132 32.096 130.808 32.168 129.176 32.168ZM129.176 31.352C129.912 31.352 130.496 31.328 130.928 31.28C131.376 31.232 131.712 31.168 131.936 31.088C132.176 31.008 132.328 30.904 132.392 30.776V27.2C132.248 27.152 131.976 27.104 131.576 27.056C131.192 27.008 130.784 26.968 130.352 26.936C129.92 26.888 129.552 26.864 129.248 26.864C128.56 26.864 128 26.904 127.568 26.984C127.152 27.064 126.848 27.264 126.656 27.584C126.48 27.904 126.392 28.4 126.392 29.072C126.392 29.6 126.456 30.032 126.584 30.368C126.712 30.704 126.968 30.952 127.352 31.112C127.752 31.272 128.36 31.352 129.176 31.352ZM140.778 34.736C140.426 34.736 140.026 34.72 139.578 34.688C139.146 34.672 138.73 34.624 138.33 34.544C137.93 34.48 137.594 34.376 137.322 34.232C137.066 34.104 136.938 33.936 136.938 33.728C136.938 33.664 136.938 33.584 136.938 33.488C136.938 33.392 136.938 33.328 136.938 33.296C137.162 33.408 137.482 33.512 137.898 33.608C138.33 33.704 138.786 33.776 139.266 33.824C139.746 33.872 140.162 33.896 140.514 33.896C141.442 33.896 142.162 33.76 142.674 33.488C143.186 33.216 143.53 32.76 143.706 32.12C143.898 31.496 143.97 30.664 143.922 29.624H144.282C144.122 30.168 143.85 30.584 143.466 30.872C143.082 31.16 142.626 31.36 142.098 31.472C141.57 31.584 141.002 31.64 140.394 31.64C139.466 31.64 138.698 31.536 138.09 31.328C137.482 31.104 137.034 30.672 136.746 30.032C136.458 29.376 136.314 28.416 136.314 27.152C136.314 26.128 136.402 25.304 136.578 24.68C136.77 24.04 137.066 23.552 137.466 23.216C137.866 22.88 138.386 22.656 139.026 22.544C139.682 22.416 140.474 22.352 141.402 22.352C141.754 22.352 142.146 22.368 142.578 22.4C143.01 22.432 143.442 22.464 143.874 22.496C144.306 22.512 144.682 22.536 145.002 22.568C145.338 22.6 145.562 22.632 145.674 22.664C145.658 22.712 145.642 22.848 145.626 23.072C145.61 23.28 145.602 23.528 145.602 23.816C145.602 24.088 145.602 24.352 145.602 24.608V30.296C145.602 31.416 145.434 32.296 145.098 32.936C144.778 33.592 144.266 34.056 143.562 34.328C142.858 34.6 141.93 34.736 140.778 34.736ZM140.778 30.632C141.37 30.632 141.898 30.568 142.362 30.44C142.826 30.296 143.202 30.072 143.49 29.768C143.778 29.448 143.922 29.024 143.922 28.496V23.552C143.778 23.52 143.45 23.48 142.938 23.432C142.426 23.368 141.834 23.336 141.162 23.336C140.378 23.336 139.762 23.44 139.314 23.648C138.866 23.84 138.538 24.2 138.33 24.728C138.138 25.24 138.042 25.984 138.042 26.96C138.042 27.952 138.13 28.72 138.306 29.264C138.482 29.792 138.77 30.152 139.17 30.344C139.57 30.536 140.106 30.632 140.778 30.632ZM152.953 32.144C152.025 32.144 151.241 32.08 150.601 31.952C149.977 31.824 149.473 31.584 149.089 31.232C148.721 30.88 148.449 30.392 148.273 29.768C148.113 29.128 148.033 28.304 148.033 27.296C148.033 26.144 148.177 25.2 148.465 24.464C148.753 23.728 149.265 23.184 150.001 22.832C150.737 22.48 151.769 22.304 153.097 22.304C154.121 22.304 154.937 22.44 155.545 22.712C156.169 22.984 156.617 23.4 156.889 23.96C157.177 24.52 157.321 25.248 157.321 26.144V27.512H150.553C150.553 27.32 150.601 27.16 150.697 27.032C150.793 26.888 150.969 26.816 151.225 26.816H155.809L155.785 26.12C155.769 25.128 155.553 24.408 155.137 23.96C154.737 23.512 154.033 23.288 153.025 23.288C152.177 23.288 151.513 23.416 151.033 23.672C150.553 23.928 150.217 24.344 150.025 24.92C149.833 25.496 149.737 26.28 149.737 27.272C149.737 28.328 149.841 29.136 150.049 29.696C150.273 30.24 150.641 30.616 151.153 30.824C151.665 31.016 152.361 31.112 153.241 31.112C153.545 31.112 153.889 31.104 154.273 31.088C154.673 31.056 155.073 31.024 155.473 30.992C155.873 30.96 156.225 30.92 156.529 30.872C156.849 30.808 157.073 30.744 157.201 30.68V30.968C157.201 31.128 157.153 31.28 157.057 31.424C156.977 31.568 156.801 31.688 156.529 31.784C156.177 31.928 155.697 32.024 155.089 32.072C154.497 32.12 153.785 32.144 152.953 32.144ZM161.253 32H160.197C159.989 32 159.829 31.952 159.717 31.856C159.621 31.744 159.573 31.544 159.573 31.256V22.904C159.925 22.792 160.405 22.672 161.013 22.544C161.637 22.416 162.405 22.352 163.317 22.352C164.181 22.352 164.861 22.416 165.357 22.544C165.869 22.656 166.237 22.816 166.461 23.024C166.701 23.232 166.853 23.488 166.917 23.792C166.997 24.08 167.037 24.408 167.037 24.776H165.429L165.405 24.44C165.389 24.072 165.269 23.808 165.045 23.648C164.821 23.472 164.557 23.368 164.253 23.336C163.949 23.288 163.645 23.264 163.341 23.264C162.877 23.264 162.461 23.304 162.093 23.384C161.741 23.464 161.461 23.568 161.253 23.696V32Z" fill="black"/>
<path fill-rule="evenodd" clip-rule="evenodd" d="M20.2884 15.4182C21.9404 14.8667 25.892 11.5492 33.355 10.6435L35.0797 10.4498C36.2289 10.1313 34.4061 10.7384 35.3593 10.3442L35.6054 10.2049C34.8408 9.76043 33.8239 8.95575 32.7903 9.06826C29.2312 9.4557 26.1011 10.8363 22.9807 12.0428C23.2726 9.3303 25.1054 7.05614 26.0357 5.06848C25.6961 4.59175 25.2877 4.39687 24.5757 4.1839C23.8581 5.7609 22.7936 7.19186 21.9957 9.29357C21.3511 10.9913 20.5443 13.561 20.2884 15.4182ZM10.5941 31.1469C8.11588 31.8384 5.59131 31.9372 2.76531 31.9722L2.76355 33.5657C5.53747 33.7989 13.3474 32.76 15.0256 31.5726C14.7432 31.317 11.2174 29.5668 8.21224 27.125C5.53831 24.9524 3.41183 21.7559 2.75653 21.2777C2.64619 23.3056 2.45585 23.6028 3.54208 24.8628C4.21191 25.6399 5.02492 26.3985 5.72845 27.0622L10.5941 31.1469ZM29.0024 43.3228C29.8952 43.0534 31.0993 42.5158 31.5174 41.7259C32.7858 39.3298 33.2691 35.1998 33.7149 32.7825L33.9809 31.9285C36.1094 33.5155 37.7965 37.0229 38.6527 37.9569L39.9625 37.3608C39.3995 34.7781 33.4534 28.5519 32.0815 27.8185C31.9956 32.5047 32.0757 35.2657 30.413 39.8348C29.983 41.0163 29.312 42.2061 29.0024 43.3228Z" fill="white"/>
<path fill-rule="evenodd" clip-rule="evenodd" d="M21.6649 47.7237C23.039 46.2755 23.0066 43.1073 21.7995 41.5094C20.5878 39.9055 18.1877 39.2003 15.2943 39.2112L6.66871 39.2757L21.6649 47.7237ZM43.247 31.1273L43.2934 14.2933C41.0582 14.0697 39.1755 15.2437 38.229 16.3663C36.802 18.0588 37.1671 20.2983 37.9445 22.1793C38.6187 23.8107 39.7065 25.245 40.5884 26.6172C41.3921 27.8679 42.4052 30.0048 43.247 31.1273ZM2.59225 13.0814C4.03591 15.9092 8.26712 17.9129 11.8849 13.8929C12.713 12.9727 17.2858 5.22235 17.4741 4.65043C16.4494 5.00782 3.12662 12.4132 2.59225 13.0814ZM10.3217 37.5915C13.951 37.5979 18.2796 37.1574 21.3307 38.8839C23.3887 40.0484 23.3845 40.9433 24.3772 43.0307C26.2206 39.6996 27.542 34.3409 27.5874 29.8635C26.1608 30.5553 24.1573 32.4785 19.6999 34.4103C17.0187 35.5723 15.5901 36.106 12.806 36.804C12.4734 36.8874 12.0527 36.9882 11.6639 37.0822C11.5809 37.1022 11.0387 37.2418 11.022 37.2479L10.3217 37.5915ZM24.4838 18.4233C28.1848 20.2454 29.5862 20.5296 33.3794 23.3203C36.2206 25.4107 38.2548 27.401 40.4816 29.8743C39.018 26.4276 35.0918 23.0645 35.6124 18.4152C35.8714 16.1022 36.7917 15.8871 37.4735 14.4233C33.6159 14.5147 29.1182 15.9858 25.6647 17.5586C24.9985 17.8621 24.7231 17.8814 24.4838 18.4233ZM5.51101 17.5762C6.40023 19.8639 12.9672 25.8592 15.6107 26.7146C15.3737 22.9229 15.0934 20.1176 15.6286 16.2932C16.2458 11.8831 17.5185 9.25372 17.7904 7.59263C16.3466 9.76709 15.1104 12.5191 13.5766 14.5013C11.7013 16.925 9.6623 18.1039 5.51101 17.5762ZM18.0915 30.1438C16.6074 29.6026 14.1556 27.972 13.1354 27.3003C5.21994 22.0877 2.97857 16.3976 1.73786 15.3338L1.75015 36.2567C9.75373 37.1745 20.2724 33.2331 26.6022 28.3389C27.5012 27.6438 28.4955 26.6124 29.3723 26.1501C29.5317 32.4401 28.7897 37.1925 26.4049 42.7336C25.7931 44.155 24.5657 45.9636 24.1968 47.2018C25.4614 46.7406 27.3511 45.5178 28.8372 44.675L38.2584 39.4098C39.1334 38.9466 42.1621 37.3809 42.8975 36.7091C42.3412 34.9146 39.9724 32.051 38.8686 30.746C37.2231 28.8006 35.6603 27.289 33.6797 25.701C29.9114 22.6797 26.1127 20.6172 21.4081 19.1675C20.9368 19.0223 21.2137 19.1476 20.9222 18.9939C20.3843 18.7105 20.6278 18.8804 20.2722 18.5067C23.5897 16.8566 25.9037 15.518 29.5399 14.3236C33.5583 13.0036 36.6076 12.7154 41.2761 12.5195C40.6975 11.6307 32.9382 7.60575 32.0726 7.1201L22.697 1.96989C21.609 4.15825 21.1742 4.26283 19.6969 7.68098C17.2736 13.2879 16.4594 20.279 17.3094 26.3886C17.4985 27.7475 17.9612 28.8946 18.0915 30.1438ZM0.0225697 12.4201L0 37.5816C2.43038 38.8663 21.7463 50.0081 22.5122 50C23.1194 49.9935 42.5146 38.927 44.9976 37.5703L45 12.4348C42.5868 10.7942 22.6806 0.00279883 22.5106 3.68662e-06C22.0582 -0.00745003 1.83962 11.2901 0.0225697 12.4201Z" fill="url(#paint0_radial_99_142)"/>
<defs>
<radialGradient id="paint0_radial_99_142" cx="0" cy="0" r="1" gradientUnits="userSpaceOnUse" gradientTransform="translate(22.5036 25.0021) rotate(-4.03492) scale(65.6779 61.8157)">
<stop stop-color="white"/>
<stop offset="0.65098" stop-color="#DEDFE0"/>
<stop offset="1" stop-color="#BDBFC1"/>
</radialGradient>
</defs>
</svg>
