<svg width="112" height="23" viewBox="0 0 112 23" fill="none" xmlns="http://www.w3.org/2000/svg">
<path d="M37.94 18V3.72H39.74V16.4H45.98V18H37.94ZM57.5083 12.62C57.5083 13.5133 57.3883 14.3067 57.1483 15C56.9216 15.68 56.5883 16.26 56.1483 16.74C55.7216 17.22 55.1949 17.5867 54.5683 17.84C53.9549 18.08 53.2683 18.2 52.5083 18.2C51.8016 18.2 51.1483 18.08 50.5483 17.84C49.9483 17.5867 49.4283 17.22 48.9883 16.74C48.5483 16.26 48.2016 15.68 47.9483 15C47.7083 14.3067 47.5883 13.5133 47.5883 12.62C47.5883 11.4333 47.7883 10.4333 48.1883 9.62C48.5883 8.79333 49.1616 8.16667 49.9083 7.74C50.6549 7.3 51.5416 7.08 52.5683 7.08C53.5416 7.08 54.3949 7.3 55.1283 7.74C55.8749 8.16667 56.4549 8.79333 56.8683 9.62C57.2949 10.4333 57.5083 11.4333 57.5083 12.62ZM49.4083 12.62C49.4083 13.46 49.5149 14.1933 49.7283 14.82C49.9549 15.4333 50.3016 15.9067 50.7683 16.24C51.2349 16.5733 51.8283 16.74 52.5483 16.74C53.2683 16.74 53.8616 16.5733 54.3283 16.24C54.7949 15.9067 55.1349 15.4333 55.3483 14.82C55.5749 14.1933 55.6883 13.46 55.6883 12.62C55.6883 11.7667 55.5749 11.04 55.3483 10.44C55.1216 9.84 54.7749 9.38 54.3083 9.06C53.8549 8.72667 53.2616 8.56 52.5283 8.56C51.4349 8.56 50.6416 8.92 50.1483 9.64C49.6549 10.36 49.4083 11.3533 49.4083 12.62ZM64.0977 7.08C64.8043 7.08 65.4377 7.21333 65.9977 7.48C66.571 7.74667 67.0577 8.15333 67.4577 8.7H67.5577L67.7977 7.28H69.1977V18.18C69.1977 19.1933 69.0243 20.04 68.6777 20.72C68.331 21.4133 67.8043 21.9333 67.0977 22.28C66.391 22.6267 65.491 22.8 64.3977 22.8C63.6243 22.8 62.911 22.74 62.2577 22.62C61.6177 22.5133 61.0443 22.3467 60.5377 22.12V20.5C60.8843 20.6733 61.2643 20.82 61.6777 20.94C62.091 21.0733 62.5377 21.1733 63.0177 21.24C63.4977 21.3067 63.991 21.34 64.4977 21.34C65.4177 21.34 66.1377 21.0667 66.6577 20.52C67.191 19.9867 67.4577 19.2533 67.4577 18.32V17.9C67.4577 17.74 67.4643 17.5133 67.4777 17.22C67.491 16.9133 67.5043 16.7 67.5177 16.58H67.4377C67.0643 17.1267 66.5977 17.5333 66.0377 17.8C65.491 18.0667 64.851 18.2 64.1177 18.2C62.731 18.2 61.6443 17.7133 60.8577 16.74C60.0843 15.7667 59.6977 14.4067 59.6977 12.66C59.6977 11.5133 59.871 10.5267 60.2177 9.7C60.5777 8.86 61.0843 8.21333 61.7377 7.76C62.391 7.30667 63.1777 7.08 64.0977 7.08ZM64.3377 8.56C63.7377 8.56 63.2243 8.72 62.7977 9.04C62.3843 9.36 62.0643 9.82667 61.8377 10.44C61.6243 11.0533 61.5177 11.8 61.5177 12.68C61.5177 14 61.7577 15.0133 62.2377 15.72C62.731 16.4133 63.4443 16.76 64.3777 16.76C64.9243 16.76 65.391 16.6933 65.7777 16.56C66.1643 16.4133 66.4843 16.1933 66.7377 15.9C66.991 15.5933 67.1777 15.2067 67.2977 14.74C67.4177 14.2733 67.4777 13.72 67.4777 13.08V12.66C67.4777 11.6867 67.3643 10.9 67.1377 10.3C66.9243 9.7 66.5843 9.26 66.1177 8.98C65.651 8.7 65.0577 8.56 64.3377 8.56ZM90.8688 10.84C90.8688 11.9467 90.7288 12.9533 90.4488 13.86C90.1688 14.7533 89.7488 15.5267 89.1888 16.18C88.6421 16.8333 87.9554 17.3333 87.1288 17.68C86.3154 18.0267 85.3688 18.2 84.2888 18.2C83.1688 18.2 82.1954 18.0267 81.3688 17.68C80.5421 17.32 79.8554 16.82 79.3088 16.18C78.7621 15.5267 78.3554 14.7467 78.0888 13.84C77.8221 12.9333 77.6888 11.9267 77.6888 10.82C77.6888 9.35333 77.9288 8.07333 78.4088 6.98C78.8888 5.88667 79.6154 5.03333 80.5888 4.42C81.5754 3.80667 82.8154 3.5 84.3088 3.5C85.7354 3.5 86.9354 3.80667 87.9088 4.42C88.8821 5.02 89.6154 5.87333 90.1088 6.98C90.6154 8.07333 90.8688 9.36 90.8688 10.84ZM79.5888 10.84C79.5888 12.04 79.7554 13.0733 80.0888 13.94C80.4221 14.8067 80.9354 15.4733 81.6288 15.94C82.3354 16.4067 83.2221 16.64 84.2888 16.64C85.3688 16.64 86.2488 16.4067 86.9288 15.94C87.6221 15.4733 88.1354 14.8067 88.4688 13.94C88.8021 13.0733 88.9688 12.04 88.9688 10.84C88.9688 9.04 88.5954 7.63333 87.8488 6.62C87.1021 5.59333 85.9221 5.08 84.3088 5.08C83.2288 5.08 82.3354 5.31333 81.6288 5.78C80.9354 6.23333 80.4221 6.89333 80.0888 7.76C79.7554 8.61333 79.5888 9.64 79.5888 10.84ZM102.754 7.28V18H101.314L101.054 16.58H100.974C100.747 16.9533 100.454 17.26 100.094 17.5C99.7338 17.74 99.3404 17.9133 98.9138 18.02C98.4871 18.14 98.0404 18.2 97.5738 18.2C96.7204 18.2 96.0004 18.0667 95.4138 17.8C94.8404 17.52 94.4071 17.0933 94.1138 16.52C93.8204 15.9467 93.6738 15.2067 93.6738 14.3V7.28H95.4538V14.18C95.4538 15.0333 95.6471 15.6733 96.0338 16.1C96.4204 16.5267 97.0204 16.74 97.8338 16.74C98.6338 16.74 99.2604 16.5933 99.7138 16.3C100.18 15.9933 100.507 15.5533 100.694 14.98C100.894 14.3933 100.994 13.6867 100.994 12.86V7.28H102.754ZM109.737 16.76C110.004 16.76 110.277 16.74 110.557 16.7C110.837 16.6467 111.064 16.5933 111.237 16.54V17.88C111.05 17.9733 110.784 18.0467 110.437 18.1C110.09 18.1667 109.757 18.2 109.437 18.2C108.877 18.2 108.357 18.1067 107.877 17.92C107.41 17.72 107.03 17.38 106.737 16.9C106.444 16.42 106.297 15.7467 106.297 14.88V8.64H104.777V7.8L106.317 7.1L107.017 4.82H108.057V7.28H111.157V8.64H108.057V14.84C108.057 15.4933 108.21 15.98 108.517 16.3C108.837 16.6067 109.244 16.76 109.737 16.76Z" fill="white"/>
<path d="M20.5135 0H9.32432C8.66487 0 8.03242 0.242321 7.56611 0.673654C7.09981 1.10499 6.83784 1.69 6.83784 2.3V4.6H9.32432V2.3H20.5135V20.7H9.32432V18.4H6.83784V20.7C6.83784 21.31 7.09981 21.895 7.56611 22.3263C8.03242 22.7577 8.66487 23 9.32432 23H20.5135C21.173 23 21.8054 22.7577 22.2717 22.3263C22.738 21.895 23 21.31 23 20.7V2.3C23 1.69 22.738 1.10499 22.2717 0.673654C21.8054 0.242321 21.173 0 20.5135 0Z" fill="white"/>
<path d="M7.9691 15.6285L6.21612 17.25L-9.15527e-05 11.5L6.21612 5.75L7.9691 7.3715L4.76153 10.35H16.7837V12.65H4.76153L7.9691 15.6285Z" fill="white"/>
</svg>
