<svg width="139" height="23" viewBox="0 0 139 23" fill="none" xmlns="http://www.w3.org/2000/svg">
<path d="M48.3789 10.7246C48.3789 13.0814 47.7344 14.8848 46.4453 16.1348C45.1628 17.3783 43.3203 18 40.918 18H36.9434V3.72266H41.3379C43.5579 3.72266 45.2865 4.33464 46.5234 5.55859C47.7604 6.77604 48.3789 8.49805 48.3789 10.7246ZM46.4844 10.7832C46.4844 8.9668 46.0352 7.5931 45.1367 6.66211C44.2448 5.72461 42.8939 5.25586 41.084 5.25586H38.7402V16.457H40.6836C44.5508 16.457 46.4844 14.5658 46.4844 10.7832ZM57.9297 18L57.5879 16.4766H57.5098C56.9759 17.1471 56.4421 17.6029 55.9082 17.8438C55.3809 18.0781 54.7135 18.1953 53.9062 18.1953C52.8516 18.1953 52.0247 17.9186 51.4258 17.3652C50.8268 16.8118 50.5273 16.0306 50.5273 15.0215C50.5273 12.847 52.2428 11.7077 55.6738 11.6035L57.4902 11.5352V10.9004C57.4902 10.0866 57.3145 9.48763 56.9629 9.10352C56.6113 8.71289 56.0482 8.51758 55.2734 8.51758C54.707 8.51758 54.1699 8.60221 53.6621 8.77148C53.1608 8.94076 52.6888 9.12956 52.2461 9.33789L51.709 8.01953C52.2493 7.73307 52.8385 7.50846 53.4766 7.3457C54.1146 7.18294 54.7461 7.10156 55.3711 7.10156C56.6667 7.10156 57.6302 7.38802 58.2617 7.96094C58.8932 8.53385 59.209 9.44531 59.209 10.6953V18H57.9297ZM54.3066 16.7793C55.2897 16.7793 56.0612 16.5156 56.6211 15.9883C57.1875 15.4544 57.4707 14.6992 57.4707 13.7227V12.7559L55.8887 12.8242C54.6582 12.8698 53.7598 13.0651 53.1934 13.4102C52.6335 13.7552 52.3535 14.2988 52.3535 15.041C52.3535 15.6009 52.5228 16.0306 52.8613 16.3301C53.2064 16.6296 53.6882 16.7793 54.3066 16.7793ZM69.5215 15.041C69.5215 16.0436 69.1471 16.8216 68.3984 17.375C67.6497 17.9219 66.5983 18.1953 65.2441 18.1953C63.8314 18.1953 62.7083 17.9707 61.875 17.5215V15.9199C63.0534 16.4928 64.1895 16.7793 65.2832 16.7793C66.1686 16.7793 66.8132 16.6361 67.2168 16.3496C67.6204 16.0632 67.8223 15.679 67.8223 15.1973C67.8223 14.7741 67.627 14.416 67.2363 14.123C66.8522 13.8301 66.1654 13.4948 65.1758 13.1172C64.1667 12.7266 63.457 12.3945 63.0469 12.1211C62.6367 11.8411 62.334 11.5286 62.1387 11.1836C61.9499 10.8385 61.8555 10.4186 61.8555 9.92383C61.8555 9.04492 62.2135 8.35156 62.9297 7.84375C63.6458 7.33594 64.6289 7.08203 65.8789 7.08203C67.0964 7.08203 68.2357 7.32292 69.2969 7.80469L68.7012 9.20117C67.6139 8.74544 66.6341 8.51758 65.7617 8.51758C65.0326 8.51758 64.4792 8.63477 64.1016 8.86914C63.724 9.09701 63.5352 9.41276 63.5352 9.81641C63.5352 10.207 63.6979 10.5326 64.0234 10.793C64.349 11.0469 65.1074 11.4017 66.2988 11.8574C67.1908 12.1895 67.8483 12.4987 68.2715 12.7852C68.7012 13.0716 69.0169 13.3939 69.2188 13.752C69.4206 14.11 69.5215 14.5397 69.5215 15.041ZM79.4336 18V11.1445C79.4336 10.2721 79.2383 9.62435 78.8477 9.20117C78.4635 8.77148 77.8581 8.55664 77.0312 8.55664C75.944 8.55664 75.1465 8.85938 74.6387 9.46484C74.1374 10.0703 73.8867 11.0697 73.8867 12.4629V18H72.1289V2.80469H73.8867V7.25781C73.8867 7.84375 73.8542 8.34505 73.7891 8.76172H73.9062C74.2253 8.24089 74.6777 7.83398 75.2637 7.54102C75.8496 7.24805 76.5104 7.10156 77.2461 7.10156C78.5482 7.10156 79.528 7.41406 80.1855 8.03906C80.8431 8.65755 81.1719 9.65039 81.1719 11.0176V18H79.4336ZM89.5703 7.10156C90.9831 7.10156 92.0736 7.58984 92.8418 8.56641C93.61 9.53646 93.9941 10.8939 93.9941 12.6387C93.9941 14.4095 93.6035 15.7799 92.8223 16.75C92.041 17.7135 90.957 18.1953 89.5703 18.1953C88.8477 18.1953 88.2031 18.0651 87.6367 17.8047C87.0703 17.5443 86.6081 17.1569 86.25 16.6426H86.1133C85.9115 17.4238 85.791 17.8763 85.752 18H84.4922V2.80469H86.25V6.49609C86.25 7.23177 86.2174 7.96745 86.1523 8.70312H86.25C86.9727 7.63542 88.0794 7.10156 89.5703 7.10156ZM89.2773 8.55664C88.1966 8.55664 87.4219 8.86263 86.9531 9.47461C86.4844 10.0866 86.25 11.1217 86.25 12.5801V12.6582C86.25 14.123 86.4876 15.1712 86.9629 15.8027C87.4447 16.4277 88.2292 16.7402 89.3164 16.7402C90.2799 16.7402 90.9961 16.3887 91.4648 15.6855C91.9401 14.9759 92.1777 13.9538 92.1777 12.6191C92.1777 11.265 91.9401 10.2493 91.4648 9.57227C90.9896 8.89518 90.2604 8.55664 89.2773 8.55664ZM106.113 12.6191C106.113 14.3704 105.671 15.7376 104.785 16.7207C103.9 17.7038 102.676 18.1953 101.113 18.1953C100.143 18.1953 99.2839 17.9707 98.5352 17.5215C97.7865 17.0658 97.2103 16.4147 96.8066 15.5684C96.403 14.722 96.2012 13.7389 96.2012 12.6191C96.2012 10.8743 96.6374 9.51693 97.5098 8.54688C98.3822 7.57031 99.6061 7.08203 101.182 7.08203C102.692 7.08203 103.89 7.58008 104.775 8.57617C105.667 9.56576 106.113 10.9134 106.113 12.6191ZM98.0176 12.6191C98.0176 13.9668 98.2812 14.9922 98.8086 15.6953C99.3424 16.3919 100.127 16.7402 101.162 16.7402C102.184 16.7402 102.962 16.3919 103.496 15.6953C104.03 14.9922 104.297 13.9668 104.297 12.6191C104.297 11.2715 104.027 10.2591 103.486 9.58203C102.952 8.89844 102.168 8.55664 101.133 8.55664C99.056 8.55664 98.0176 9.91081 98.0176 12.6191ZM115.527 18L115.186 16.4766H115.107C114.574 17.1471 114.04 17.6029 113.506 17.8438C112.979 18.0781 112.311 18.1953 111.504 18.1953C110.449 18.1953 109.622 17.9186 109.023 17.3652C108.424 16.8118 108.125 16.0306 108.125 15.0215C108.125 12.847 109.84 11.7077 113.271 11.6035L115.088 11.5352V10.9004C115.088 10.0866 114.912 9.48763 114.561 9.10352C114.209 8.71289 113.646 8.51758 112.871 8.51758C112.305 8.51758 111.768 8.60221 111.26 8.77148C110.758 8.94076 110.286 9.12956 109.844 9.33789L109.307 8.01953C109.847 7.73307 110.436 7.50846 111.074 7.3457C111.712 7.18294 112.344 7.10156 112.969 7.10156C114.264 7.10156 115.228 7.38802 115.859 7.96094C116.491 8.53385 116.807 9.44531 116.807 10.6953V18H115.527ZM111.904 16.7793C112.887 16.7793 113.659 16.5156 114.219 15.9883C114.785 15.4544 115.068 14.6992 115.068 13.7227V12.7559L113.486 12.8242C112.256 12.8698 111.357 13.0651 110.791 13.4102C110.231 13.7552 109.951 14.2988 109.951 15.041C109.951 15.6009 110.12 16.0306 110.459 16.3301C110.804 16.6296 111.286 16.7793 111.904 16.7793ZM125.137 7.08203C125.612 7.08203 126.032 7.12109 126.396 7.19922L126.182 8.82031C125.785 8.72917 125.397 8.68359 125.02 8.68359C124.453 8.68359 123.926 8.83984 123.438 9.15234C122.956 9.46484 122.578 9.89779 122.305 10.4512C122.031 10.998 121.895 11.6068 121.895 12.2773V18H120.137V7.27734H121.582L121.777 9.24023H121.855C122.266 8.5306 122.751 7.99349 123.311 7.62891C123.87 7.26432 124.479 7.08203 125.137 7.08203ZM132.002 18.1953C130.609 18.1953 129.528 17.7135 128.76 16.75C127.992 15.7865 127.607 14.4225 127.607 12.6582C127.607 10.9069 127.992 9.53971 128.76 8.55664C129.535 7.57357 130.622 7.08203 132.021 7.08203C133.46 7.08203 134.567 7.60938 135.342 8.66406H135.469C135.449 8.53385 135.423 8.27344 135.391 7.88281C135.358 7.48568 135.342 7.21875 135.342 7.08203V2.80469H137.1V18H135.684L135.42 16.5645H135.342C134.593 17.6517 133.48 18.1953 132.002 18.1953ZM132.285 16.7402C133.353 16.7402 134.131 16.4505 134.619 15.8711C135.114 15.2852 135.361 14.3281 135.361 13V12.6777C135.361 11.1868 135.111 10.1257 134.609 9.49414C134.115 8.85612 133.333 8.53711 132.266 8.53711C131.361 8.53711 130.661 8.89844 130.166 9.62109C129.671 10.3372 129.424 11.3626 129.424 12.6973C129.424 14.0254 129.668 15.0312 130.156 15.7148C130.651 16.3984 131.361 16.7402 132.285 16.7402Z" fill="black"/>
<rect x="0.8" y="0.8" width="8.75" height="21.4" rx="1.2" stroke="black" stroke-width="1.6"/>
<rect x="13.4499" y="0.8" width="8.75" height="10.9455" rx="1.2" stroke="black" stroke-width="1.6"/>
<rect x="13.4499" y="15.4364" width="8.75" height="6.76364" rx="1.2" stroke="black" stroke-width="1.6"/>
</svg>
