<svg width="142" height="25" viewBox="0 0 142 25" fill="none" xmlns="http://www.w3.org/2000/svg">
<path d="M42.4648 19H40.6582V6.30469H36.1953V4.72266H46.8984V6.30469H42.4648V19ZM53.3438 8.08203C53.819 8.08203 54.2389 8.12109 54.6035 8.19922L54.3887 9.82031C53.9915 9.72917 53.6042 9.68359 53.2266 9.68359C52.6602 9.68359 52.1328 9.83984 51.6445 10.1523C51.1628 10.4648 50.7852 10.8978 50.5117 11.4512C50.2383 11.998 50.1016 12.6068 50.1016 13.2773V19H48.3438V8.27734H49.7891L49.9844 10.2402H50.0625C50.4727 9.5306 50.9577 8.99349 51.5176 8.62891C52.0775 8.26432 52.6862 8.08203 53.3438 8.08203ZM63.0312 19L62.6895 17.4766H62.6113C62.0775 18.1471 61.5436 18.6029 61.0098 18.8438C60.4824 19.0781 59.8151 19.1953 59.0078 19.1953C57.9531 19.1953 57.1263 18.9186 56.5273 18.3652C55.9284 17.8118 55.6289 17.0306 55.6289 16.0215C55.6289 13.847 57.3444 12.7077 60.7754 12.6035L62.5918 12.5352V11.9004C62.5918 11.0866 62.416 10.4876 62.0645 10.1035C61.7129 9.71289 61.1497 9.51758 60.375 9.51758C59.8086 9.51758 59.2715 9.60221 58.7637 9.77148C58.2624 9.94076 57.7904 10.1296 57.3477 10.3379L56.8105 9.01953C57.3509 8.73307 57.9401 8.50846 58.5781 8.3457C59.2161 8.18294 59.8477 8.10156 60.4727 8.10156C61.7682 8.10156 62.7318 8.38802 63.3633 8.96094C63.9948 9.53385 64.3105 10.4453 64.3105 11.6953V19H63.0312ZM59.4082 17.7793C60.3913 17.7793 61.1628 17.5156 61.7227 16.9883C62.2891 16.4544 62.5723 15.6992 62.5723 14.7227V13.7559L60.9902 13.8242C59.7598 13.8698 58.8613 14.0651 58.2949 14.4102C57.735 14.7552 57.4551 15.2988 57.4551 16.041C57.4551 16.6009 57.6243 17.0306 57.9629 17.3301C58.3079 17.6296 58.7897 17.7793 59.4082 17.7793ZM74.9453 19V12.1445C74.9453 11.2721 74.75 10.6243 74.3594 10.2012C73.9753 9.77148 73.3698 9.55664 72.543 9.55664C71.4427 9.55664 70.6419 9.86263 70.1406 10.4746C69.6458 11.0801 69.3984 12.0697 69.3984 13.4434V19H67.6406V8.27734H69.0566L69.3203 9.74219H69.418C69.75 9.21484 70.2155 8.80794 70.8145 8.52148C71.4134 8.22852 72.0742 8.08203 72.7969 8.08203C74.112 8.08203 75.0885 8.40104 75.7266 9.03906C76.3646 9.67708 76.6836 10.6699 76.6836 12.0176V19H74.9453ZM86.9863 16.041C86.9863 17.0436 86.612 17.8216 85.8633 18.375C85.1146 18.9219 84.0632 19.1953 82.709 19.1953C81.2962 19.1953 80.1732 18.9707 79.3398 18.5215V16.9199C80.5182 17.4928 81.6543 17.7793 82.748 17.7793C83.6335 17.7793 84.278 17.6361 84.6816 17.3496C85.0853 17.0632 85.2871 16.679 85.2871 16.1973C85.2871 15.7741 85.0918 15.416 84.7012 15.123C84.3171 14.8301 83.6302 14.4948 82.6406 14.1172C81.6315 13.7266 80.9219 13.3945 80.5117 13.1211C80.1016 12.8411 79.7988 12.5286 79.6035 12.1836C79.4147 11.8385 79.3203 11.4186 79.3203 10.9238C79.3203 10.0449 79.6784 9.35156 80.3945 8.84375C81.1107 8.33594 82.0938 8.08203 83.3438 8.08203C84.5612 8.08203 85.7005 8.32292 86.7617 8.80469L86.166 10.2012C85.0788 9.74544 84.099 9.51758 83.2266 9.51758C82.4974 9.51758 81.944 9.63477 81.5664 9.86914C81.1888 10.097 81 10.4128 81 10.8164C81 11.207 81.1628 11.5326 81.4883 11.793C81.8138 12.0469 82.5723 12.4017 83.7637 12.8574C84.6556 13.1895 85.3132 13.4987 85.7363 13.7852C86.166 14.0716 86.4818 14.3939 86.6836 14.752C86.8854 15.11 86.9863 15.5397 86.9863 16.041ZM96.2148 19L95.873 17.4766H95.7949C95.2611 18.1471 94.7272 18.6029 94.1934 18.8438C93.666 19.0781 92.9987 19.1953 92.1914 19.1953C91.1367 19.1953 90.3099 18.9186 89.7109 18.3652C89.112 17.8118 88.8125 17.0306 88.8125 16.0215C88.8125 13.847 90.528 12.7077 93.959 12.6035L95.7754 12.5352V11.9004C95.7754 11.0866 95.5996 10.4876 95.248 10.1035C94.8965 9.71289 94.3333 9.51758 93.5586 9.51758C92.9922 9.51758 92.4551 9.60221 91.9473 9.77148C91.446 9.94076 90.974 10.1296 90.5312 10.3379L89.9941 9.01953C90.5345 8.73307 91.1237 8.50846 91.7617 8.3457C92.3997 8.18294 93.0312 8.10156 93.6562 8.10156C94.9518 8.10156 95.9154 8.38802 96.5469 8.96094C97.1784 9.53385 97.4941 10.4453 97.4941 11.6953V19H96.2148ZM92.5918 17.7793C93.5749 17.7793 94.3464 17.5156 94.9062 16.9883C95.4727 16.4544 95.7559 15.6992 95.7559 14.7227V13.7559L94.1738 13.8242C92.9434 13.8698 92.0449 14.0651 91.4785 14.4102C90.9186 14.7552 90.6387 15.2988 90.6387 16.041C90.6387 16.6009 90.8079 17.0306 91.1465 17.3301C91.4915 17.6296 91.9733 17.7793 92.5918 17.7793ZM105.121 19.1953C103.578 19.1953 102.377 18.7233 101.518 17.7793C100.658 16.8288 100.229 15.4681 100.229 13.6973C100.229 11.9004 100.661 10.5169 101.527 9.54688C102.4 8.57031 103.64 8.08203 105.248 8.08203C105.769 8.08203 106.283 8.13737 106.791 8.24805C107.305 8.35221 107.729 8.48893 108.061 8.6582L107.523 10.123C106.618 9.78451 105.847 9.61523 105.209 9.61523C104.128 9.61523 103.331 9.95703 102.816 10.6406C102.302 11.3177 102.045 12.3301 102.045 13.6777C102.045 14.9733 102.302 15.9661 102.816 16.6562C103.331 17.3398 104.092 17.6816 105.102 17.6816C106.046 17.6816 106.973 17.4733 107.885 17.0566V18.6191C107.143 19.0033 106.221 19.1953 105.121 19.1953ZM106.605 21.7832C106.605 22.4277 106.358 22.9258 105.863 23.2773C105.375 23.6289 104.636 23.8047 103.646 23.8047C103.223 23.8047 102.891 23.7689 102.65 23.6973V22.6035C102.885 22.6686 103.236 22.7012 103.705 22.7012C104.193 22.7012 104.561 22.6361 104.809 22.5059C105.062 22.3822 105.189 22.1543 105.189 21.8223C105.189 21.2428 104.581 20.875 103.363 20.7188L104.223 19H105.385L104.867 20.0645C106.026 20.3118 106.605 20.8848 106.605 21.7832ZM119.75 13.6191C119.75 15.3704 119.307 16.7376 118.422 17.7207C117.536 18.7038 116.312 19.1953 114.75 19.1953C113.78 19.1953 112.921 18.9707 112.172 18.5215C111.423 18.0658 110.847 17.4147 110.443 16.5684C110.04 15.722 109.838 14.7389 109.838 13.6191C109.838 11.8743 110.274 10.5169 111.146 9.54688C112.019 8.57031 113.243 8.08203 114.818 8.08203C116.329 8.08203 117.527 8.58008 118.412 9.57617C119.304 10.5658 119.75 11.9134 119.75 13.6191ZM111.654 13.6191C111.654 14.9668 111.918 15.9922 112.445 16.6953C112.979 17.3919 113.764 17.7402 114.799 17.7402C115.821 17.7402 116.599 17.3919 117.133 16.6953C117.667 15.9922 117.934 14.9668 117.934 13.6191C117.934 12.2715 117.663 11.2591 117.123 10.582C116.589 9.89844 115.805 9.55664 114.77 9.55664C112.693 9.55664 111.654 10.9108 111.654 13.6191ZM116.303 6.86133C116.023 6.86133 115.749 6.80273 115.482 6.68555C115.215 6.56185 114.952 6.43164 114.691 6.29492C114.438 6.15169 114.19 6.02148 113.949 5.9043C113.715 5.7806 113.487 5.71875 113.266 5.71875C112.947 5.71875 112.706 5.81641 112.543 6.01172C112.38 6.20052 112.253 6.49023 112.162 6.88086H111.146C111.225 6.08659 111.452 5.46159 111.83 5.00586C112.208 4.55013 112.712 4.32227 113.344 4.32227C113.637 4.32227 113.92 4.38411 114.193 4.50781C114.473 4.625 114.74 4.75521 114.994 4.89844C115.248 5.03516 115.492 5.16536 115.727 5.28906C115.961 5.40625 116.182 5.46484 116.391 5.46484C116.703 5.46484 116.938 5.37044 117.094 5.18164C117.257 4.98633 117.387 4.69336 117.484 4.30273H118.49C118.412 5.07747 118.184 5.69922 117.807 6.16797C117.429 6.63021 116.928 6.86133 116.303 6.86133ZM127.104 19.1953C125.495 19.1953 124.232 18.7103 123.314 17.7402C122.403 16.7637 121.947 15.4225 121.947 13.7168C121.947 11.998 122.374 10.6309 123.227 9.61523C124.079 8.5931 125.232 8.08203 126.684 8.08203C128.031 8.08203 129.105 8.51823 129.906 9.39062C130.707 10.2565 131.107 11.4316 131.107 12.916V13.9805H123.764C123.796 15.1979 124.105 16.1224 124.691 16.7539C125.277 17.3854 126.107 17.7012 127.182 17.7012C127.755 17.7012 128.298 17.6523 128.812 17.5547C129.327 17.4505 129.929 17.252 130.619 16.959V18.502C130.027 18.7559 129.47 18.9349 128.949 19.0391C128.428 19.1432 127.813 19.1953 127.104 19.1953ZM126.664 9.51758C125.824 9.51758 125.16 9.78776 124.672 10.3281C124.184 10.8685 123.894 11.6204 123.803 12.584H129.262C129.249 11.5814 129.018 10.8197 128.568 10.2988C128.119 9.77799 127.484 9.51758 126.664 9.51758ZM140.814 16.041C140.814 17.0436 140.44 17.8216 139.691 18.375C138.943 18.9219 137.891 19.1953 136.537 19.1953C135.124 19.1953 134.001 18.9707 133.168 18.5215V16.9199C134.346 17.4928 135.482 17.7793 136.576 17.7793C137.462 17.7793 138.106 17.6361 138.51 17.3496C138.913 17.0632 139.115 16.679 139.115 16.1973C139.115 15.7741 138.92 15.416 138.529 15.123C138.145 14.8301 137.458 14.4948 136.469 14.1172C135.46 13.7266 134.75 13.3945 134.34 13.1211C133.93 12.8411 133.627 12.5286 133.432 12.1836C133.243 11.8385 133.148 11.4186 133.148 10.9238C133.148 10.0449 133.507 9.35156 134.223 8.84375C134.939 8.33594 135.922 8.08203 137.172 8.08203C138.389 8.08203 139.529 8.32292 140.59 8.80469L139.994 10.2012C138.907 9.74544 137.927 9.51758 137.055 9.51758C136.326 9.51758 135.772 9.63477 135.395 9.86914C135.017 10.097 134.828 10.4128 134.828 10.8164C134.828 11.207 134.991 11.5326 135.316 11.793C135.642 12.0469 136.4 12.4017 137.592 12.8574C138.484 13.1895 139.141 13.4987 139.564 13.7852C139.994 14.0716 140.31 14.3939 140.512 14.752C140.714 15.11 140.814 15.5397 140.814 16.041Z" fill="black"/>
<path d="M18.8535 22.0797C21.097 20.5934 22.748 18.3667 23.5186 15.7876C24.2893 13.2085 24.1307 10.4406 23.0706 7.96649C22.0105 5.49235 20.116 3.46885 17.7175 2.24871C15.3189 1.02858 12.5684 0.689197 9.94539 1.28973M18.8535 22.0797V17.6093M18.8535 22.0797H23.3516M6.11504 2.94123C3.87927 4.43294 2.23686 6.6614 1.47343 9.23906C0.709986 11.8167 0.873811 14.5805 1.93641 17.0499C2.99901 19.5192 4.89317 21.5379 7.28949 22.7548C9.68582 23.9718 12.4327 24.31 15.0525 23.7108M6.11504 2.94123V7.3912M6.11504 2.94123H1.6463" stroke="black" stroke-width="1.6" stroke-linecap="round" stroke-linejoin="round"/>
<path d="M10.5048 15.9067V9.09378M12.4991 9.09378V7.39119M12.4991 17.6093V15.9067M10.5048 12.5002H14.4934M14.4934 12.5002C15.1548 12.5002 15.691 13.0724 15.691 13.7775V14.6294C15.691 15.3345 15.1548 15.9067 14.4947 15.9067H9.30713M14.4934 12.5002C15.1535 12.5002 15.691 11.928 15.691 11.223V10.371C15.691 9.66599 15.1548 9.09378 14.4947 9.09378H9.30713" stroke="black" stroke-width="1.6" stroke-linecap="round" stroke-linejoin="round"/>
</svg>
