<svg width="98" height="42" viewBox="0 0 98 42" fill="none" xmlns="http://www.w3.org/2000/svg">
<path d="M76.8565 5.09235C71.0639 5.09235 66.3564 9.79985 66.3564 15.5923V20.6498C66.3564 21.7173 65.9014 23.3448 65.3589 24.2548L63.3464 27.5973C62.1039 29.6623 62.9614 31.9548 65.2364 32.7248C72.7789 35.2448 80.9165 35.2448 88.459 32.7248C90.5765 32.0248 91.504 29.5223 90.349 27.5973L88.3365 24.2548C87.8115 23.3448 87.3565 21.7173 87.3565 20.6498V15.5923C87.3565 9.81735 82.6315 5.09235 76.8565 5.09235Z" stroke="#11C76F" stroke-width="2.625" stroke-miterlimit="10" stroke-linecap="round"/>
<path d="M80.0939 5.60002C79.5514 5.44252 78.9914 5.32002 78.4139 5.25002C76.7339 5.04002 75.1239 5.16252 73.6189 5.60002C74.1264 4.30502 75.3864 3.39502 76.8564 3.39502C78.3264 3.39502 79.5864 4.30502 80.0939 5.60002Z" stroke="#11C76F" stroke-width="2.625" stroke-miterlimit="10" stroke-linecap="round" stroke-linejoin="round"/>
<path d="M82.1065 33.3553C82.1065 36.2428 79.744 38.6053 76.8565 38.6053C75.4215 38.6053 74.0915 38.0103 73.1466 37.0653C72.2016 36.1203 71.6066 34.7903 71.6066 33.3553" stroke="#11C76F" stroke-width="2.625" stroke-miterlimit="10"/>
<circle cx="86.0088" cy="10.85" r="5.25" fill="#EB001B"/>
<path d="M17.6477 34.5862C26.0299 34.5862 32.8252 27.7909 32.8252 19.4087C32.8252 11.0264 26.0299 4.2312 17.6477 4.2312C9.26541 4.2312 2.47021 11.0264 2.47021 19.4087C2.47021 21.8366 3.04031 24.1313 4.05393 26.1665C4.3233 26.7072 4.41295 27.3254 4.25679 27.909L3.3528 31.2877C2.96037 32.7543 4.30215 34.096 5.76881 33.7036L9.14739 32.7996C9.73102 32.6435 10.3492 32.7332 10.89 33.0024C12.925 34.0161 15.2198 34.5862 17.6477 34.5862Z" stroke="#11C76F" stroke-width="3.3"/>
<circle cx="30.25" cy="11.25" r="5.25" fill="#EB001B"/>
</svg>
